<svg width="40" height="40" viewBox="0 0 40 40" fill="none" xmlns="http://www.w3.org/2000/svg">
<path d="M8.09906 30.5992L8.09883 30.5991C7.2261 29.9483 6.42549 28.9206 5.8427 27.759C5.25985 26.5973 4.91663 25.3451 4.91663 24.2666V11.8666C4.91663 9.50736 6.67146 6.96177 8.89112 6.13513L8.89208 6.13477L17.2083 3.01826C17.2084 3.01823 17.2085 3.0182 17.2086 3.01817C17.9621 2.73661 18.9615 2.5874 19.9833 2.5874C21.0051 2.5874 22.0045 2.73661 22.758 3.01817C22.7581 3.0182 22.7582 3.01823 22.7582 3.01826L31.0745 6.13477L31.0755 6.13513C33.2951 6.96177 35.05 9.50736 35.05 11.8666V24.2499C35.05 25.3371 34.7066 26.5892 34.124 27.7483C33.5415 28.9073 32.741 29.9313 31.8678 30.5824L31.8675 30.5826L24.7009 35.9326L24.7008 35.9325L24.6946 35.9373C23.4119 36.9264 21.724 37.4332 20 37.4332C18.2773 37.4332 16.5851 36.927 15.2648 35.9486C15.2647 35.9484 15.2645 35.9483 15.2644 35.9482L8.09906 30.5992ZM17.7418 4.43145L17.7412 4.4317L9.4245 7.54837L9.42379 7.54863C8.59621 7.86019 7.85498 8.52248 7.32406 9.29061C6.79297 10.059 6.43329 10.9898 6.43329 11.8832V24.2666C6.43329 25.161 6.74388 26.1892 7.20088 27.101C7.65776 28.0126 8.29325 28.8722 9.00081 29.4005L9.00085 29.4006L16.1672 34.7503C17.2292 35.5445 18.6282 35.9249 20.002 35.9249C21.376 35.9249 22.7782 35.5445 23.8477 34.7516L23.8491 34.7506L31.0157 29.4006L31.0166 29.3999C31.7314 28.8638 32.3668 28.005 32.8222 27.0943C33.2775 26.1837 33.5833 25.16 33.5833 24.2666V11.8666C33.5833 10.9804 33.2229 10.0538 32.6925 9.28645C32.162 8.51889 31.4223 7.85396 30.5976 7.5338L30.5976 7.53376L30.5921 7.5317L22.2754 4.41503L22.2755 4.41495L22.2664 4.41174C21.6282 4.18651 20.8001 4.08314 20.0007 4.08532C19.202 4.0875 18.3751 4.19514 17.7418 4.43145Z" fill="#FAFAFA" stroke="#FAFAFA"/>
<mask id="path-2-inside-1_10276_366" fill="white">
<path d="M17.7667 23.7167C17.45 23.7167 17.1334 23.6 16.8834 23.35L14.2 20.6667C13.7167 20.1834 13.7167 19.3834 14.2 18.9C14.6834 18.4167 15.4834 18.4167 15.9667 18.9L17.7667 20.7L24.05 14.4167C24.5334 13.9334 25.3334 13.9334 25.8167 14.4167C26.3 14.9 26.3 15.7 25.8167 16.1834L18.65 23.35C18.4 23.6 18.0834 23.7167 17.7667 23.7167Z"/>
</mask>
<path d="M17.7667 23.7167C17.45 23.7167 17.1334 23.6 16.8834 23.35L14.2 20.6667C13.7167 20.1834 13.7167 19.3834 14.2 18.9C14.6834 18.4167 15.4834 18.4167 15.9667 18.9L17.7667 20.7L24.05 14.4167C24.5334 13.9334 25.3334 13.9334 25.8167 14.4167C26.3 14.9 26.3 15.7 25.8167 16.1834L18.65 23.35C18.4 23.6 18.0834 23.7167 17.7667 23.7167Z" fill="#FAFAFA"/>
<path d="M16.8834 23.35L16.1762 24.0571H16.1763L16.8834 23.35ZM14.2 20.6667L14.9071 19.9596H14.9071L14.2 20.6667ZM17.7667 20.7L17.0596 21.4071L17.7667 22.1142L18.4738 21.4071L17.7667 20.7ZM24.05 14.4167L24.7571 15.1238L24.05 14.4167ZM17.7667 22.7167C17.7313 22.7167 17.7003 22.7103 17.6736 22.6995C17.6479 22.6892 17.6198 22.6723 17.5905 22.6429L16.1763 24.0571C16.6237 24.5046 17.1991 24.7167 17.7667 24.7167V22.7167ZM17.5905 22.6429L14.9071 19.9596L13.4929 21.3738L16.1762 24.0571L17.5905 22.6429ZM14.9071 19.9596C14.8641 19.9165 14.8375 19.8551 14.8375 19.7834C14.8375 19.7117 14.8641 19.6502 14.9071 19.6071L13.4929 18.1929C12.6191 19.0668 12.6191 20.4999 13.4929 21.3738L14.9071 19.9596ZM14.9071 19.6071C14.9502 19.5641 15.0117 19.5375 15.0834 19.5375C15.1551 19.5375 15.2165 19.5641 15.2596 19.6071L16.6738 18.1929C15.7999 17.3191 14.3668 17.3191 13.4929 18.1929L14.9071 19.6071ZM15.2596 19.6071L17.0596 21.4071L18.4738 19.9929L16.6738 18.1929L15.2596 19.6071ZM18.4738 21.4071L24.7571 15.1238L23.3429 13.7096L17.0596 19.9929L18.4738 21.4071ZM24.7571 15.1238C24.8002 15.0808 24.8617 15.0542 24.9334 15.0542C25.0051 15.0542 25.0665 15.0808 25.1096 15.1238L26.5238 13.7096C25.6499 12.8357 24.2168 12.8357 23.3429 13.7096L24.7571 15.1238ZM25.1096 15.1238C25.1526 15.1669 25.1792 15.2283 25.1792 15.3C25.1792 15.3717 25.1526 15.4332 25.1096 15.4763L26.5238 16.8905C27.3977 16.0166 27.3977 14.5835 26.5238 13.7096L25.1096 15.1238ZM25.1096 15.4763L17.9429 22.6429L19.3571 24.0571L26.5238 16.8905L25.1096 15.4763ZM17.9429 22.6429C17.9136 22.6723 17.8855 22.6892 17.8597 22.6995C17.8331 22.7103 17.8021 22.7167 17.7667 22.7167V24.7167C18.3343 24.7167 18.9097 24.5046 19.3571 24.0571L17.9429 22.6429Z" fill="#FAFAFA" mask="url(#path-2-inside-1_10276_366)"/>
</svg>
